# xmcd CD database file
#
# Track frame offsets:
#	150
#	17425
#	37653
#	58923
#	91312
#	109774
#	140097
#	166655
#	187036
#	203709
#	210233
#	238132
#	251492
#	270944
#	278998
#
# Disc length: 4465 seconds
#
# Revision: 0
# Processed by: cddbd v1.5.1PL0 Copyright (c) Steve Scherf et al.
# Submitted via: CDex 1.51
#
DISCID=c8116f0f
DTITLE=Jan Garbarek - Visible World
DYEAR=1996
DGENRE=Jazz
TTITLE0=Red Wind
TTITLE1=The Creek
TTITLE2=The Healing Smoke
TTITLE3=Isible World-Chiaro
TTITLE4=Desolate Mountains 1
TTITLE5=Desolate Mountains 2
TTITLE6=Visible World-Scuro
TTITLE7=Giulietta
TTITLE8=Desolate Nountains 3
TTITLE9=Pygmy Lullaby
TTITLE10=The Quest
TTITLE11=The Arrow
TTITLE12=The Scythe
TTITLE13=Evening Land
TTITLE14=The Survivor
EXTD=YEAR: 1996
EXTT0=
EXTT1=
EXTT2=
EXTT3=
EXTT4=
EXTT5=
EXTT6=
EXTT7=
EXTT8=
EXTT9=
EXTT10=
EXTT11=
EXTT12=
EXTT13=
EXTT14=
PLAYORDER=
